<svg xmlns="http://www.w3.org/2000/svg" width="500" height="300"><defs><style type="text/css"><![CDATA[ path { 
    stroke: steelblue;
    stroke-width: 2;
    fill: none;
}

.axis path,
.axis line {
    fill: none;
    stroke: grey;
    stroke-width: 1;
    shape-rendering: crispEdges;
}

.legend {
    font-weight: bold;
    text-anchor: middle;
    font-family: Arial;
}

.grid line {
    stroke:#000;
    stroke-opacity: 0.3;
    shape-rendering: crispEdges;
}
  
.grid path {
    stroke-width: 0;
}
  

text { font: 12px Arial; font-weight:bold} ]]></style></defs><g transform="translate(50,30)"><g class="grid" transform="translate(0,200)" fill="none" font-size="10" font-family="sans-serif" text-anchor="middle" style="stroke-dasharray: 1, 2;"><path class="domain" stroke="currentColor" d="M0.5,-200V0.5H420.5V-200"></path><g class="tick" opacity="1" transform="translate(0.5,0)"><line stroke="currentColor" y2="-200"></line><text fill="currentColor" y="3" dy="0.71em"></text></g><g class="tick" opacity="1" transform="translate(58.77408801052263,0)"><line stroke="currentColor" y2="-200"></line><text fill="currentColor" y="3" dy="0.71em"></text></g><g class="tick" opacity="1" transform="translate(117.04817602104526,0)"><line stroke="currentColor" y2="-200"></line><text fill="currentColor" y="3" dy="0.71em"></text></g><g class="tick" opacity="1" transform="translate(175.32226403156793,0)"><line stroke="currentColor" y2="-200"></line><text fill="currentColor" y="3" dy="0.71em"></text></g><g class="tick" opacity="1" transform="translate(233.59635204209053,0)"><line stroke="currentColor" y2="-200"></line><text fill="currentColor" y="3" dy="0.71em"></text></g><g class="tick" opacity="1" transform="translate(291.87044005261316,0)"><line stroke="currentColor" y2="-200"></line><text fill="currentColor" y="3" dy="0.71em"></text></g><g class="tick" opacity="1" transform="translate(350.14452806313585,0)"><line stroke="currentColor" y2="-200"></line><text fill="currentColor" y="3" dy="0.71em"></text></g><g class="tick" opacity="1" transform="translate(408.4186160736585,0)"><line stroke="currentColor" y2="-200"></line><text fill="currentColor" y="3" dy="0.71em"></text></g></g><g class="grid" fill="none" font-size="10" font-family="sans-serif" text-anchor="end" style="stroke-dasharray: 1, 2;"><path class="domain" stroke="currentColor" d="M420,200.5H0.5V0.5H420"></path><g class="tick" opacity="1" transform="translate(0,198.32152230971133)"><line stroke="currentColor" x2="420"></line><text fill="currentColor" x="-3" dy="0.32em"></text></g><g class="tick" opacity="1" transform="translate(0,172.07480314960637)"><line stroke="currentColor" x2="420"></line><text fill="currentColor" x="-3" dy="0.32em"></text></g><g class="tick" opacity="1" transform="translate(0,145.82808398950138)"><line stroke="currentColor" x2="420"></line><text fill="currentColor" x="-3" dy="0.32em"></text></g><g class="tick" opacity="1" transform="translate(0,119.58136482939642)"><line stroke="currentColor" x2="420"></line><text fill="currentColor" x="-3" dy="0.32em"></text></g><g class="tick" opacity="1" transform="translate(0,93.33464566929145)"><line stroke="currentColor" x2="420"></line><text fill="currentColor" x="-3" dy="0.32em"></text></g><g class="tick" opacity="1" transform="translate(0,67.08792650918647)"><line stroke="currentColor" x2="420"></line><text fill="currentColor" x="-3" dy="0.32em"></text></g><g class="tick" opacity="1" transform="translate(0,40.841207349081515)"><line stroke="currentColor" x2="420"></line><text fill="currentColor" x="-3" dy="0.32em"></text></g><g class="tick" opacity="1" transform="translate(0,14.594488188976527)"><line stroke="currentColor" x2="420"></line><text fill="currentColor" x="-3" dy="0.32em"></text></g></g><path class="line" style="stroke: #1f77b4;" id="tagtemperature" d="M0,66.58792650918647L1.1724746507717156,200L3.5057691347130415,197.08661417322824L5.839063618654368,194.17322834645685L8.172358102595696,191.31233595800518L10.505652586537021,188.47769028871411L12.838947070478346,185.6692913385829L15.172241554419674,182.88713910761152L17.505536038360997,180.15748031496065L19.838830522302327,177.42782152230973L22.172125006243654,174.75065616797892L24.50541949018498,172.09973753280835L28.00536121609697,168.18897637795268L31.505302942008957,164.33070866141748L35.00524466792095,160.52493438320198L38.505186393832936,156.7979002624672L42.00512811974493,153.1233595800525L45.50506984565691,149.5275590551181L49.005011571568915,145.95800524934393L52.5049532974809,142.46719160105008L56.004895023392876,139.02887139107634L59.50483674930487,135.66929133858287L63.00477847521687,132.33595800524932L66.50472020112886,129.08136482939642L70.00466192704084,125.87926509186362L73.50460365295282,122.70341207349104L77.00454537886482,119.60629921259842L80.50448710477681,116.56167979002625L84.0044288306888,113.5433070866143L87.50437055660079,110.60367454068269L91.00431228251279,107.69028871391092L94.50425400842478,104.82939632545924L98.00419573433676,102.02099737532804L101.50413746024874,99.26509186351728L105.00407918616075,96.53543307086639L108.50402091207275,93.8845144356958L112.00396263798471,91.25984251968508L116.67055160586737,87.82152230971133L121.33714057375002,84.46194225721788L126.00372954163268,81.15485564304493L130.67031850951534,77.95275590551212L135.336907477398,74.80314960629939L140.00349644528063,71.73228346456699L144.6700854131633,68.74015748031493L149.33667438104595,65.80052493438328L154.00326334892858,62.91338582677179L158.66985231681124,60.10498687664054L163.3364412846939,57.3490813648294L168.00303025257654,54.67191601049899L172.6696192204592,52.04724409448826L178.50285543031254,48.84514435695547L184.33609164016585,45.72178477690298L190.16932785001916,42.67716535433081L196.00256405987247,39.73753280839918L201.83580026972578,36.876640419947506L207.6690364795791,34.068241469816314L213.50227268943246,31.364829396325632L219.3355088992857,28.740157480315276L226.3353923511097,25.669291338582894L233.3352758029337,22.70341207349105L240.33515925475768,19.816272965879506L247.33504270658167,17.034120734908157L254.33492615840564,14.356955380577716L262.5014568522003,11.33858267716542L270.6679875459949,8.42519685039403L278.83451823978953,5.643044619422653L287.00104893358423,2.9396325459319996L296.3342268693495,0L297.5008741113202,3.2808398950131448L298.66752135329085,6.561679790026233L299.83416859526153,9.816272965879506L301.00081583723215,13.044619422572168L302.1674630792028,16.24671916010496L303.3341103211735,19.44881889763778L304.50075756314413,22.624671916010726L305.6674048051148,25.774278215223063L306.83405204708544,28.92388451443577L313.83393549890945,25.85301837270336L320.8338189507335,22.887139107611517L327.83370240255744,20L334.8335858543814,17.21784776902902L341.83346930620536,14.514435695538339L350,11.496062992126042L358.16653069379464,8.582677165354653L366.33306138758934,5.774278215223433L374.499592081384,3.097112860892622L383.8327700171493,0.1312335958007793L384.99941725911987,3.4120734908138957L386.1660645010906,6.692913385827012L387.3327117430612,9.947506561679916L388.49935898503196,13.175853018372948L389.6660062270025,16.37795275590574L390.8326534689732,19.580052493438558L391.9993007109439,22.755905511811136L393.16594795291456,25.905511811023842L394.3325951948852,29.05511811023618L401.3324786467092,25.984251968504168L408.33236209853317,22.992125984252084L415.3322455503572,20.13123359580078L420,20.13123359580078"></path><text x="70" y="240" class="legend" style="fill: #1f77b4;">temperature</text><path class="line" style="stroke: #ff7f0e;" id="tagactiveSp" d="M0,14.094488188976527L420,14.094488188976527"></path><text x="210" y="240" class="legend" style="fill: #ff7f0e;">activeSp</text><path class="line" style="stroke: #2ca02c;" id="tagheat1" d="M0,200L0.5829739764572685,200L0.5829739764572685,133.33333333333334L296.3343434175255,133.33333333333334L296.3343434175255,200L306.8342851434375,200L306.8342851434375,133.33333333333334L383.8328865653253,133.33333333333334L383.8328865653253,200L394.3328282912372,200L394.3328282912372,133.33333333333334L420,133.33333333333334L420,133.33333333333334"></path><text x="350" y="240" class="legend" style="fill: #2ca02c;">heat1</text><g class="axis" transform="translate(0,200)" fill="none" font-size="10" font-family="sans-serif" text-anchor="middle"><path class="domain" stroke="currentColor" d="M0.5,6V0.5H420.5V6"></path><g class="tick" opacity="1" transform="translate(0.5,0)"><line stroke="currentColor" y2="6"></line><text fill="currentColor" y="9" dy="0.71em">0</text></g><g class="tick" opacity="1" transform="translate(58.77408801052263,0)"><line stroke="currentColor" y2="6"></line><text fill="currentColor" y="9" dy="0.71em">500</text></g><g class="tick" opacity="1" transform="translate(117.04817602104526,0)"><line stroke="currentColor" y2="6"></line><text fill="currentColor" y="9" dy="0.71em">1,000</text></g><g class="tick" opacity="1" transform="translate(175.32226403156793,0)"><line stroke="currentColor" y2="6"></line><text fill="currentColor" y="9" dy="0.71em">1,500</text></g><g class="tick" opacity="1" transform="translate(233.59635204209053,0)"><line stroke="currentColor" y2="6"></line><text fill="currentColor" y="9" dy="0.71em">2,000</text></g><g class="tick" opacity="1" transform="translate(291.87044005261316,0)"><line stroke="currentColor" y2="6"></line><text fill="currentColor" y="9" dy="0.71em">2,500</text></g><g class="tick" opacity="1" transform="translate(350.14452806313585,0)"><line stroke="currentColor" y2="6"></line><text fill="currentColor" y="9" dy="0.71em">3,000</text></g><g class="tick" opacity="1" transform="translate(408.4186160736585,0)"><line stroke="currentColor" y2="6"></line><text fill="currentColor" y="9" dy="0.71em">3,500</text></g></g><g class="axis" fill="none" font-size="10" font-family="sans-serif" text-anchor="end"><path class="domain" stroke="currentColor" d="M-6,200.5H0.5V0.5H-6"></path><g class="tick" opacity="1" transform="translate(0,198.32152230971133)"><line stroke="currentColor" x2="-6"></line><text fill="currentColor" x="-9" dy="0.32em">65</text></g><g class="tick" opacity="1" transform="translate(0,172.07480314960637)"><line stroke="currentColor" x2="-6"></line><text fill="currentColor" x="-9" dy="0.32em">66</text></g><g class="tick" opacity="1" transform="translate(0,145.82808398950138)"><line stroke="currentColor" x2="-6"></line><text fill="currentColor" x="-9" dy="0.32em">67</text></g><g class="tick" opacity="1" transform="translate(0,119.58136482939642)"><line stroke="currentColor" x2="-6"></line><text fill="currentColor" x="-9" dy="0.32em">68</text></g><g class="tick" opacity="1" transform="translate(0,93.33464566929145)"><line stroke="currentColor" x2="-6"></line><text fill="currentColor" x="-9" dy="0.32em">69</text></g><g class="tick" opacity="1" transform="translate(0,67.08792650918647)"><line stroke="currentColor" x2="-6"></line><text fill="currentColor" x="-9" dy="0.32em">70</text></g><g class="tick" opacity="1" transform="translate(0,40.841207349081515)"><line stroke="currentColor" x2="-6"></line><text fill="currentColor" x="-9" dy="0.32em">71</text></g><g class="tick" opacity="1" transform="translate(0,14.594488188976527)"><line stroke="currentColor" x2="-6"></line><text fill="currentColor" x="-9" dy="0.32em">72</text></g></g><g class="axis" transform="translate( 420, 0 )" fill="none" font-size="10" font-family="sans-serif" text-anchor="start"><path class="domain" stroke="currentColor" d="M6,200.5H0.5V0.5H6"></path><g class="tick" opacity="1" transform="translate(0,200.5)"><line stroke="currentColor" x2="6"></line><text fill="currentColor" x="9" dy="0.32em">0.0</text></g><g class="tick" opacity="1" transform="translate(0,167.16666666666669)"><line stroke="currentColor" x2="6"></line><text fill="currentColor" x="9" dy="0.32em">0.5</text></g><g class="tick" opacity="1" transform="translate(0,133.83333333333334)"><line stroke="currentColor" x2="6"></line><text fill="currentColor" x="9" dy="0.32em">1.0</text></g><g class="tick" opacity="1" transform="translate(0,100.5)"><line stroke="currentColor" x2="6"></line><text fill="currentColor" x="9" dy="0.32em">1.5</text></g><g class="tick" opacity="1" transform="translate(0,67.16666666666669)"><line stroke="currentColor" x2="6"></line><text fill="currentColor" x="9" dy="0.32em">2.0</text></g><g class="tick" opacity="1" transform="translate(0,33.833333333333314)"><line stroke="currentColor" x2="6"></line><text fill="currentColor" x="9" dy="0.32em">2.5</text></g><g class="tick" opacity="1" transform="translate(0,0.5)"><line stroke="currentColor" x2="6"></line><text fill="currentColor" x="9" dy="0.32em">3.0</text></g></g><text x="210" y="-15" text-anchor="middle" style="font-size: 14px;">Heating Example</text></g></svg>